<?xml version="1.0" encoding="utf-8"?>
<!-- Generator: Adobe Illustrator 19.0.0, SVG Export Plug-In . SVG Version: 6.00 Build 0)  -->
<svg version="1.1" id="Layer_1" xmlns="http://www.w3.org/2000/svg" xmlns:xlink="http://www.w3.org/1999/xlink" x="0px" y="0px"
	 viewBox="0 0 24.5 4.3" style="enable-background:new 0 0 24.5 4.3;" xml:space="preserve">
<style type="text/css">
	.st0{clip-path:url(#SVGID_2_);fill:#FFFFFF;}
	.st1{clip-path:url(#SVGID_4_);fill:#FFFFFF;}
	.st2{clip-path:url(#SVGID_6_);fill:#FFFFFF;}
	.st3{clip-path:url(#SVGID_8_);fill:#FFFFFF;}
	.st4{clip-path:url(#SVGID_10_);fill:#FFFFFF;}
	.st5{fill:none;}
</style>
<g>
	<defs>
		<path id="SVGID_1_" d="M0.7,0.7h0.8c0.9,0,1.4,0.6,1.4,1.4c0,0.8-0.5,1.4-1.4,1.4H0.7V0.7z M0,0.1v4.1h1.5c1.3,0,2.2-0.8,2.2-2.1
			c0-1.2-0.9-2.1-2.2-2.1H0z"/>
	</defs>
	<use xlink:href="#SVGID_1_"  style="overflow:visible;fill:#FFFFFF;"/>
	<clipPath id="SVGID_2_">
		<use xlink:href="#SVGID_1_"  style="overflow:visible;"/>
	</clipPath>
	<rect y="0.1" class="st0" width="3.7" height="4.1"/>
</g>
<g>
	<defs>
		<path id="SVGID_3_" d="M7.7,0.8l0.7,2H6.9L7.7,0.8z M7.2,0.1L5.6,4.2h0.8l0.3-0.8h1.9l0.3,0.8h0.8L8.1,0.1H7.2z"/>
	</defs>
	<use xlink:href="#SVGID_3_"  style="overflow:visible;fill:#FFFFFF;"/>
	<clipPath id="SVGID_4_">
		<use xlink:href="#SVGID_3_"  style="overflow:visible;"/>
	</clipPath>
	<rect x="5.6" y="0.1" class="st1" width="4.1" height="4.1"/>
</g>
<g>
	<defs>
		<path id="SVGID_5_" d="M11.8,1.2c0,1.5,2.4,1,2.4,1.9c0,0.3-0.2,0.6-0.8,0.6c-0.6,0-1-0.3-1.3-0.6l-0.4,0.6
			c0.4,0.4,0.9,0.7,1.7,0.7C14.5,4.3,15,3.7,15,3c0-1.5-2.4-1.1-2.4-1.8c0-0.3,0.3-0.5,0.7-0.5c0.4,0,0.9,0.1,1.2,0.5l0.4-0.5
			C14.5,0.2,14,0,13.3,0C12.4,0,11.8,0.5,11.8,1.2"/>
	</defs>
	<use xlink:href="#SVGID_5_"  style="overflow:visible;fill:#FFFFFF;"/>
	<clipPath id="SVGID_6_">
		<use xlink:href="#SVGID_5_"  style="overflow:visible;"/>
	</clipPath>
	<rect x="11.7" y="0" class="st2" width="3.3" height="4.3"/>
</g>
<g>
	<defs>
		<polygon id="SVGID_7_" points="20.3,0.1 20.3,1.8 18.2,1.8 18.2,0.1 17.5,0.1 17.5,4.2 18.2,4.2 18.2,2.4 20.3,2.4 20.3,4.2 
			21.1,4.2 21.1,0.1 		"/>
	</defs>
	<use xlink:href="#SVGID_7_"  style="overflow:visible;fill:#FFFFFF;"/>
	<clipPath id="SVGID_8_">
		<use xlink:href="#SVGID_7_"  style="overflow:visible;"/>
	</clipPath>
	<rect x="17.5" y="0.1" class="st3" width="3.6" height="4.1"/>
</g>
<g>
	<defs>
		<rect id="SVGID_9_" x="23.8" y="0.1" width="0.7" height="4.1"/>
	</defs>
	<use xlink:href="#SVGID_9_"  style="overflow:visible;fill:#FFFFFF;"/>
	<clipPath id="SVGID_10_">
		<use xlink:href="#SVGID_9_"  style="overflow:visible;"/>
	</clipPath>
	<rect x="23.8" y="0.1" class="st4" width="0.7" height="4.1"/>
</g>
<rect y="1.2" class="st5" width="28.4" height="1.7"/>
</svg>
